{
    "asset" : {
        "generator" : "Khronos glTF Blender I/O v1.8.19",
        "version" : "2.0"
    },
    "scene" : 0,
    "scenes" : [
        {
            "name" : "Scene",
            "nodes" : [
                5
            ]
        }
    ],
    "nodes" : [
        {
            "name" : "Bone",
            "rotation" : [
                0.46587610244750977,
                0.8123331069946289,
                -0.08151455223560333,
                0.34121811389923096
            ],
            "scale" : [
                1,
                1.0000004768371582,
                0.9999999403953552
            ],
            "translation" : [
                -0.21122121810913086,
                0.6390285491943359,
                -0.3047277331352234
            ]
        },
        {
            "name" : "Bone.003",
            "rotation" : [
                0.22538365423679352,
                1.3418836886103236e-07,
                0.8883727192878723,
                0.39999517798423767
            ],
            "scale" : [
                1.0000001192092896,
                1.0000001192092896,
                1
            ],
            "translation" : [
                -0.8120672702789307,
                1.488987922668457,
                -0.35685473680496216
            ]
        },
        {
            "children" : [
                1
            ],
            "name" : "Bone.002",
            "rotation" : [
                0.4021161198616028,
                -0.057713449001312256,
                -0.7798073887825012,
                0.476311057806015
            ],
            "scale" : [
                1.0000001192092896,
                0.9999999403953552,
                1.0000001192092896
            ],
            "translation" : [
                5.330413443971338e-08,
                1.974446415901184,
                5.3306493441596103e-08
            ]
        },
        {
            "children" : [
                2
            ],
            "name" : "Bone.001",
            "rotation" : [
                -0.2973874509334564,
                0.08210482448339462,
                -0.25314852595329285,
                0.9169161915779114
            ],
            "scale" : [
                1,
                1,
                0.9999998807907104
            ]
        },
        {
            "mesh" : 0,
            "name" : "Cube",
            "skin" : 0
        },
        {
            "children" : [
                4,
                0,
                3
            ],
            "name" : "Armature"
        }
    ],
    "materials" : [
        {
            "doubleSided" : true,
            "name" : "Material",
            "pbrMetallicRoughness" : {
                "metallicFactor" : 0,
                "roughnessFactor" : 0.4000000059604645
            }
        }
    ],
    "meshes" : [
        {
            "name" : "Cube",
            "primitives" : [
                {
                    "attributes" : {
                        "POSITION" : 0,
                        "NORMAL" : 1,
                        "TEXCOORD_0" : 2,
                        "JOINTS_0" : 3,
                        "WEIGHTS_0" : 4
                    },
                    "indices" : 5,
                    "material" : 0
                }
            ]
        }
    ],
    "skins" : [
        {
            "inverseBindMatrices" : 6,
            "joints" : [
                0,
                3,
                2,
                1
            ],
            "name" : "Armature"
        }
    ],
    "accessors" : [
        {
            "bufferView" : 0,
            "componentType" : 5126,
            "count" : 24,
            "max" : [
                1,
                1,
                1
            ],
            "min" : [
                -1,
                -1,
                -1
            ],
            "type" : "VEC3"
        },
        {
            "bufferView" : 1,
            "componentType" : 5126,
            "count" : 24,
            "type" : "VEC3"
        },
        {
            "bufferView" : 2,
            "componentType" : 5126,
            "count" : 24,
            "type" : "VEC2"
        },
        {
            "bufferView" : 3,
            "componentType" : 5121,
            "count" : 24,
            "type" : "VEC4"
        },
        {
            "bufferView" : 4,
            "componentType" : 5126,
            "count" : 24,
            "type" : "VEC4"
        },
        {
            "bufferView" : 5,
            "componentType" : 5123,
            "count" : 36,
            "type" : "SCALAR"
        },
        {
            "bufferView" : 6,
            "componentType" : 5126,
            "count" : 4,
            "type" : "MAT4"
        }
    ],
    "bufferViews" : [
        {
            "buffer" : 0,
            "byteLength" : 288,
            "byteOffset" : 0
        },
        {
            "buffer" : 0,
            "byteLength" : 288,
            "byteOffset" : 288
        },
        {
            "buffer" : 0,
            "byteLength" : 192,
            "byteOffset" : 576
        },
        {
            "buffer" : 0,
            "byteLength" : 96,
            "byteOffset" : 768
        },
        {
            "buffer" : 0,
            "byteLength" : 384,
            "byteOffset" : 864
        },
        {
            "buffer" : 0,
            "byteLength" : 72,
            "byteOffset" : 1248
        },
        {
            "buffer" : 0,
            "byteLength" : 256,
            "byteOffset" : 1320
        }
    ],
    "buffers" : [
        {
            "byteLength" : 1576,
            "uri" : "data:application/octet-stream;base64,"
        }
    ]
}
