{
    "asset" : {
        "generator" : "Khronos glTF Blender I/O v1.8.19",
        "version" : "2.0"
    },
    "scene" : 0,
    "scenes" : [
        {
            "name" : "Scene",
            "nodes" : [
                0
            ]
        }
    ],
    "nodes" : [
        {
            "mesh" : 0,
            "name" : "Cube"
        }
    ],
    "materials" : [
        {
            "doubleSided" : true,
            "name" : "Material",
            "pbrMetallicRoughness" : {
                "metallicFactor" : 0
            }
        }
    ],
    "meshes" : [
        {
            "name" : "Cube",
            "primitives" : [
                {
                    "attributes" : {
                        "POSITION" : 0,
                        "NORMAL" : 1,
                        "TEXCOORD_0" : 2,
                        "COLOR_0" : 3
                    },
                    "indices" : 4,
                    "material" : 0
                }
            ]
        }
    ],
    "accessors" : [
        {
            "bufferView" : 0,
            "componentType" : 5126,
            "count" : 3072,
            "max" : [
                0.8811495900154114,
                1.5366663932800293,
                0.8811495900154114
            ],
            "min" : [
                -0.8811495900154114,
                0.0022874027490615845,
                -0.8811495900154114
            ],
            "type" : "VEC3"
        },
        {
            "bufferView" : 1,
            "componentType" : 5126,
            "count" : 3072,
            "type" : "VEC3"
        },
        {
            "bufferView" : 2,
            "componentType" : 5126,
            "count" : 3072,
            "type" : "VEC2"
        },
        {
            "bufferView" : 3,
            "componentType" : 5123,
            "count" : 3072,
            "normalized" : true,
            "type" : "VEC4"
        },
        {
            "bufferView" : 4,
            "componentType" : 5123,
            "count" : 4608,
            "type" : "SCALAR"
        }
    ],
    "bufferViews" : [
        {
            "buffer" : 0,
            "byteLength" : 36864,
            "byteOffset" : 0
        },
        {
            "buffer" : 0,
            "byteLength" : 36864,
            "byteOffset" : 36864
        },
        {
            "buffer" : 0,
            "byteLength" : 24576,
            "byteOffset" : 73728
        },
        {
            "buffer" : 0,
            "byteLength" : 24576,
            "byteOffset" : 98304
        },
        {
            "buffer" : 0,
            "byteLength" : 9216,
            "byteOffset" : 122880
        }
    ],
    "buffers" : [
        {
            "byteLength" : 132096,
            "uri" : "data:application/octet-stream;base64,"
        }
    ]
}
